<svg id="Ebene_1" data-name="Ebene 1" xmlns="http://www.w3.org/2000/svg" viewBox="0 0 701.49 282.45"><defs><style>.cls-1{fill:#40453b;}.cls-2{fill:#f39200;}</style></defs><title>erdfisch logo</title><path class="cls-1" d="M915.4,580.36c0,7.3-2.5,9.37-11.74,9.37-11.3,0-14.53,4.18-14.53,4.18V646.1H875V574.92h11.69l1.59,9.66h.8c2.67-5,7-8.52,14.15-9.25,6.94-.7,9.29-.7,11.47-1.63a39.83,39.83,0,0,1,.71,6.66" transform="translate(-609 -400)"/><path class="cls-1" d="M975.08,629.06c-2.94,4.78-8.59,6.37-19.31,6.37-17,0-20.82-8.24-20.82-22.73,0-21.86,4.2-28.15,25.78-28.15,6.42,0,12.65,1.61,14.45,2.62l-.1,41.89Zm16.15-84.37c-4.15-1.13-16.06-2.22-16.06,7.47,0,10.78,0,22.77,0,22.77-3.11-.42-11.21-1.44-15.21-1.44-30.51,0-40.58,10-40.58,40.11,0,24.42,10.93,34.07,31.31,34.07,16.12,0,19.46-3.74,23.87-11.37h1.05l1.43,9.64H989.4v-71c0-18.61.52-27.92,1.83-30.24" transform="translate(-609 -400)"/><path class="cls-1" d="M825.66,584.32c11.26,0,16.55,4.16,16.55,14v2.47s-1.79,2.74-14.18,2.74c-15.23,0-23-1.34-23-1.34,0-12.83,7.61-17.85,20.66-17.85m11.77,30.53c16.12,0,19.83-4.68,19.83-4.68a43.84,43.84,0,0,0,.19-4.52c0-23.19-4.6-31.93-31.22-31.93-29,0-36.69,9.7-36.69,37.33,0,27.14,7.51,36.85,36.78,36.85,26.91,0,31.88-3.2,31.88-13a24.19,24.19,0,0,0-1.29-7.76c-2.36,3.78-12.14,9-27.69,9-20.22,0-24.17-4.24-24.17-22.82,0,0,16.27,1.54,32.38,1.54" transform="translate(-609 -400)"/><path class="cls-1" d="M1138.16,604.43c14.57,5.19,24.15,10.63,24.15,21.47,0,13.53-12.93,21.72-33.09,21.72-15.59,0-28.67-2.21-28.67-10.06a19.1,19.1,0,0,1,3.8-11.19c4.44,4.51,13.06,9.83,25.34,9.83,11.61,0,16.77-2.48,16.77-8.55,0-6.95-12.45-10.34-23.85-14.37-12-4.25-20.55-9-20.55-20.31,0-12.09,10.63-19.47,30.71-19.47,18.42,0,25.59,3.46,25.59,10.7a16.73,16.73,0,0,1-2.56,8.53c-1.71-2.9-9.21-9-20.67-9s-17,2.83-17,8.27c0,4.72,6.43,7.54,20,12.4" transform="translate(-609 -400)"/><path class="cls-1" d="M1085.1,545.7c1,1.79,1.42,12.31.28,14.33s-11.76,2-13.17-.46-.38-12.3.76-14.31,10.85-1.8,12.13.44" transform="translate(-609 -400)"/><path class="cls-1" d="M1036.59,586.22s11.29-.52,21.26-.52a133.41,133.41,0,0,1,13.52.52v59.72h14.23l.07-57.05c0-1.94.06-5.46.06-7,0-4.83-5-7-9.57-7h-39.41l-.08-11.25c0-6.93,3.22-9.13,9.84-9.13a19.64,19.64,0,0,1,13.5,5,42,42,0,0,0,1.75-10.53c0-4.77-5.12-6.74-14.63-6.74-18.26,0-24.87,7.87-24.87,20.62,0,1.48,0,12,0,12s-18.78.26-22.73-1.8c0,9.42,3.06,14.38,8.39,14.38s14.53-.51,14.53-.51v67.16c0,24-1.46,24.28-2.27,27.26,4.2,1.5,17.21,3.09,17.21-8.51,0-26.52-.77-46.13-.77-86.68" transform="translate(-609 -400)"/><path class="cls-1" d="M1243.53,627.54c-3.94,7.42-12.66,9.46-26.29,9.46-22.13,0-27-5.6-27-27,0-19.06,4.75-25.2,20.77-25.2,8.86,0,16.71,3.61,19.07,8.81a22.65,22.65,0,0,0,1.91-9.41c0-7.47-7.38-10.47-20.56-10.47-26.37,0-37.14,11.46-37.14,37.81,0,27.9,10.83,36.61,39.49,36.61,19,0,26.27-4.41,29.57-11.84h1l1.31,9.64h12.15V592.72c5.18-4.48,14.8-6.75,22.14-6.75,11.08,0,16.3,5.36,16.3,14.39v45.58h14.22l0-48.51c0-15.17-8.37-23.47-27-23.47-9.77,0-21,2.85-25.17,10.95l-.5-.09V572.65c0-15.51.71-25.27,1.67-27.79-4.15-1.14-15.93-2.22-15.93,8.77v73.91Z" transform="translate(-609 -400)"/><path class="cls-2" d="M623.28,525c-2.74-2.14-4.94-6.53-4.94-6.53s2-3.44,2.91-4.73a22.61,22.61,0,0,1,4.66-4.29c5.07,5.5,6.4,18.21,6.4,18.21l-1.17,2a43.72,43.72,0,0,1-7.86-4.7m45.45-42.25c3.2-1.28,10.12-11.08,11-14.74-4.29,1.17-15.55-1.26-16.64-2.66,7.79,0,10.56-.53,12.44-3.24,2.82-4.08,4.2-23.39,2.19-27.24-.93,4.46-11.11,3.28-14.71,3.75,2.11-3.05,2.66-3,.08-11.67-2.11,6.82-26.74,9.77-33.12,20-2.34,3.75-.1,16.48,1.58,22.51,1.15,4.13,5.9,7.16,5.9,7.16s-1.8-10.18.31-12.3,14.56-6.1,16.21-4.3c2.2,2.42,1.41,9.16.86,14.25-.44,4.06-1.33,7.67-2,8.55s-4.71-.95-4.71-.95a44.5,44.5,0,0,0,.84,6c2.09-.43,17.19-4.07,19.81-5.11m-21.61,18.88c-1.68.11-5.41-4.46-7.43-11.47,0,0-13.27,3.81-15.35,5.14s-16.65,24.78-15.24,26.81c1.4,3.75,11.92,6.81,16.62,12.27a22.65,22.65,0,0,1,1.9,2.94s-2.1,8.81-2.1,11.69c0,9.2,22.42,33.92,36.17,35,6.2.47,25.32.15,27.52-.31,8.75-1.88,16.08-18,20.14-25.53,3,.24,34.69,1.48,42.58-5,9.9-8.06,12.45-39.57,15.19-44.71-2.17-.24-6.1-.47-9.7-1.09-6.79-1.19-12-4.42-16.8-4.42-4.39,0-15,3.32-15.65,2.3-1.26-2.11,3.79-12.08,3.79-14.69,0-5.84-7.29-15.85-11.22-22.8-4.47-7.92-5.63-13.7-7.51-15.89-3.9,7.45-21,33.85-22.15,37.18s-3.68,28-2.43,35.8,14.08,24.08,14.08,24.08c-2.51,4.39-8.43,12.82-24.46,7.7-4.16-1.32-5.51-17.78-6.58-21.14-.87-2.7-7.59-6.81-12.06-10.64l2-9.7s4.58-1.36,6.81-4.95c-1.88-3.9-3.82-12.56-5.33-15.09s-6.52-2.11-8.78-3.37c0,0-2.36,9.76-4,9.86" transform="translate(-609 -400)"/><path class="cls-2" d="M732,408.06a2.71,2.71,0,0,1-2.93-2.75c0-1.42,1.12-3.38,2.87-3.38,1.45,0,3.42,3.19,3.42,4.34,0,1.46-2,1.79-3.36,1.79M734.3,400c-2.71,0-7.17,1.79-7.17,4.76s.24,5.65,3.92,5.65c4.88,0,6.42-2.38,6.42-6.57,0-1.9-.74-3.84-3.17-3.84" transform="translate(-609 -400)"/><path class="cls-2" d="M761.82,447.31a3,3,0,0,1-3.14-2.82c0-1.42,2.33-2.67,4.08-2.67,1.44,0,1.78,2.89,1.78,4.05,0,1.44-1.35,1.44-2.72,1.44m-.31-7.21c-2.72,0-6.13.79-6.13,3.76s2.33,5.38,6,5.38c4.89,0,5.77-1.18,5.77-5.38,0-1.88-3.23-3.76-5.65-3.76" transform="translate(-609 -400)"/><path class="cls-2" d="M760.11,429.65c-.42,1.69-2.09,3.15-5.26,3.15s-3.9-5.24-3.38-6.31,3.23-1.48,4.85-1.48,4.22,3,3.79,4.64m-2.31-6.53c-2.17,0-7.77,1.5-8.86,3.58s-.8,8.08,4.12,8.08c3.35,0,9.33-.95,9.33-4.95,0-3.35-.19-6.71-4.59-6.71" transform="translate(-609 -400)"/><path class="cls-2" d="M742.63,477.7c-3.68,0-5.53-1.77-5.53-5.08,0-5.17,1.4-5.6,6.61-5.6,2.75,0,5.75.06,6.3,3.07s-1.35,7.61-7.38,7.61M742.9,465c-7,0-8.58.89-8.58,7.63,0,7,.29,7.63,8,7.63,3.49,0,11.89.09,11.89-5.77,0-6.51.35-9.49-11.34-9.49" transform="translate(-609 -400)"/><path class="cls-2" d="M730.73,457.7c-3.05-.18-5.85-1.87-5.45-6.35.28-3.17.85-5.45,3.33-5.45,2.91,0,10.5.54,10.5,4.11,0,5.36-1.73,8.09-8.38,7.69m12.72-10.58c-2-2-15.1-4.58-17.89-3.46s-4.66,9.8-4.66,12c0,3.95,12.73,6,16,6,7.55,0,8.56-12.56,6.53-14.6" transform="translate(-609 -400)"/><path class="cls-2" d="M678.86,604c36.22,0,87.57,4.78,87.57,4.78V598.51s-55.53-10.06-93.14-10.06-60.42,8.87-60.42,8.87v10.22a617.5,617.5,0,0,1,66-3.58" transform="translate(-609 -400)"/></svg>